<svg xmlns="http://www.w3.org/2000/svg" xmlns:xlink="http://www.w3.org/1999/xlink" width="500" zoomAndPan="magnify" viewBox="0 0 375 374.999991" height="500" preserveAspectRatio="xMidYMid meet" version="1.0"><defs><clipPath id="21cb50d074"><path d="M 27.964844 49.835938 L 346.714844 49.835938 L 346.714844 325.085938 L 27.964844 325.085938 Z M 27.964844 49.835938 " clip-rule="nonzero"/></clipPath></defs><g clip-path="url(#21cb50d074)"><path fill="#141414" d="M 73.285156 146.253906 L 73.285156 323.4375 C 73.285156 324.261719 72.460938 325.085938 71.636719 325.085938 L 28.816406 325.085938 C 27.992188 325.085938 27.992188 324.261719 27.992188 323.4375 L 27.992188 50.65625 C 27.992188 49.835938 27.992188 49.835938 28.816406 49.835938 L 186.105469 178.394531 C 186.925781 178.394531 187.75 178.394531 188.574219 178.394531 L 345.863281 49.835938 C 346.6875 49.835938 346.6875 50.65625 346.6875 50.65625 L 346.6875 298.710938 C 345.039062 297.066406 343.390625 294.59375 342.566406 292.121094 C 341.746094 291.296875 328.570312 269.046875 303.039062 224.542969 C 302.21875 222.894531 301.394531 221.246094 301.394531 220.421875 C 301.394531 189.929688 301.394531 165.207031 301.394531 146.253906 C 301.394531 146.253906 301.394531 145.429688 300.570312 145.429688 L 187.75 240.203125 C 186.925781 240.203125 186.925781 240.203125 186.925781 240.203125 L 74.109375 145.429688 C 73.285156 145.429688 73.285156 146.253906 73.285156 146.253906 Z M 107.046875 195.699219 L 142.457031 225.367188 C 143.28125 226.191406 143.28125 226.191406 143.28125 226.191406 L 88.109375 323.4375 C 87.285156 323.4375 87.285156 323.4375 87.285156 323.4375 L 87.285156 229.488281 C 87.285156 229.488281 87.285156 229.488281 87.285156 228.664062 L 106.226562 195.699219 C 106.226562 195.699219 106.226562 195.699219 107.046875 195.699219 Z M 232.21875 225.367188 L 267.628906 195.699219 C 268.453125 195.699219 268.453125 195.699219 268.453125 195.699219 L 340.097656 323.4375 C 340.921875 324.261719 340.921875 324.261719 340.921875 324.261719 C 340.921875 324.261719 340.097656 325.085938 340.097656 325.085938 L 287.394531 325.085938 C 287.394531 325.085938 287.394531 324.261719 287.394531 324.261719 L 232.21875 226.191406 C 232.21875 226.191406 232.21875 225.367188 232.21875 225.367188 Z M 228.925781 126.476562 L 187.75 160.265625 C 186.925781 160.265625 186.925781 160.265625 186.925781 160.265625 L 145.753906 126.476562 C 145.753906 126.476562 145.753906 125.652344 145.753906 125.652344 L 186.925781 52.304688 C 186.925781 52.304688 186.925781 52.304688 187.75 52.304688 L 228.925781 125.652344 C 228.925781 125.652344 228.925781 126.476562 228.925781 126.476562 Z M 228.925781 126.476562 " fill-opacity="1" fill-rule="evenodd"/></g></svg>